<mxfile host="app.diagrams.net" modified="2021-04-18T10:12:50.367Z" agent="5.0 (Windows NT 10.0; Win64; x64) AppleWebKit/537.36 (KHTML, like Gecko) Chrome/89.0.4389.128 Safari/537.36" etag="Rrj-EOxZt6VhtbW3U4Yi" version="14.6.1" type="github">
  <diagram id="B8CmKDwyGbyVNqopFrgM" name="Page-1">
    <mxGraphModel dx="1422" dy="1931" grid="1" gridSize="10" guides="1" tooltips="1" connect="1" arrows="1" fold="1" page="1" pageScale="1" pageWidth="827" pageHeight="1169" math="0" shadow="0">
      <root>
        <mxCell id="0" />
        <mxCell id="1" parent="0" />
        <mxCell id="Le8qK9793g7wIc5CrF22-37" value="" style="rounded=0;whiteSpace=wrap;html=1;fillColor=#fff2cc;strokeColor=#d6b656;" vertex="1" parent="1">
          <mxGeometry x="145" y="-180" width="610" height="120" as="geometry" />
        </mxCell>
        <mxCell id="Le8qK9793g7wIc5CrF22-36" value="" style="rounded=0;whiteSpace=wrap;html=1;fillColor=#fff2cc;strokeColor=#d6b656;" vertex="1" parent="1">
          <mxGeometry x="130" y="-30" width="620" height="660" as="geometry" />
        </mxCell>
        <mxCell id="Le8qK9793g7wIc5CrF22-1" value="PreDepthPass" style="rounded=1;whiteSpace=wrap;html=1;" vertex="1" parent="1">
          <mxGeometry x="180" y="30" width="120" height="60" as="geometry" />
        </mxCell>
        <mxCell id="Le8qK9793g7wIc5CrF22-2" value="BasePass" style="rounded=1;whiteSpace=wrap;html=1;" vertex="1" parent="1">
          <mxGeometry x="180" y="130" width="120" height="60" as="geometry" />
        </mxCell>
        <mxCell id="Le8qK9793g7wIc5CrF22-3" value="PreRenderDiffuseIrradiance" style="rounded=1;whiteSpace=wrap;html=1;" vertex="1" parent="1">
          <mxGeometry x="165" y="-130" width="170" height="60" as="geometry" />
        </mxCell>
        <mxCell id="Le8qK9793g7wIc5CrF22-4" value="PreFliterHDRCubeMap" style="rounded=1;whiteSpace=wrap;html=1;" vertex="1" parent="1">
          <mxGeometry x="360" y="-130" width="170" height="60" as="geometry" />
        </mxCell>
        <mxCell id="Le8qK9793g7wIc5CrF22-5" value="PreBrdfLUT" style="rounded=1;whiteSpace=wrap;html=1;" vertex="1" parent="1">
          <mxGeometry x="550" y="-130" width="170" height="60" as="geometry" />
        </mxCell>
        <mxCell id="Le8qK9793g7wIc5CrF22-6" value="" style="endArrow=classic;html=1;exitX=0.5;exitY=1;exitDx=0;exitDy=0;entryX=0.5;entryY=0;entryDx=0;entryDy=0;" edge="1" parent="1" source="Le8qK9793g7wIc5CrF22-1" target="Le8qK9793g7wIc5CrF22-2">
          <mxGeometry width="50" height="50" relative="1" as="geometry">
            <mxPoint x="300" y="370" as="sourcePoint" />
            <mxPoint x="350" y="320" as="targetPoint" />
          </mxGeometry>
        </mxCell>
        <mxCell id="Le8qK9793g7wIc5CrF22-7" value="DepthBuffer" style="rounded=1;whiteSpace=wrap;html=1;strokeColor=none;fillColor=none;" vertex="1" parent="1">
          <mxGeometry x="250" y="100" width="90" height="30" as="geometry" />
        </mxCell>
        <mxCell id="Le8qK9793g7wIc5CrF22-8" value="" style="endArrow=classic;html=1;exitX=0.5;exitY=1;exitDx=0;exitDy=0;" edge="1" parent="1" source="Le8qK9793g7wIc5CrF22-2" target="Le8qK9793g7wIc5CrF22-10">
          <mxGeometry width="50" height="50" relative="1" as="geometry">
            <mxPoint x="450" y="250" as="sourcePoint" />
            <mxPoint x="520" y="190" as="targetPoint" />
          </mxGeometry>
        </mxCell>
        <mxCell id="Le8qK9793g7wIc5CrF22-9" value="GBuffer:&amp;nbsp; Pos,Normal,SpecularRoughMetal" style="rounded=1;whiteSpace=wrap;html=1;strokeColor=none;fillColor=none;" vertex="1" parent="1">
          <mxGeometry x="255" y="200" width="240" height="30" as="geometry" />
        </mxCell>
        <mxCell id="Le8qK9793g7wIc5CrF22-10" value="ShadowMapPass" style="rounded=1;whiteSpace=wrap;html=1;" vertex="1" parent="1">
          <mxGeometry x="180" y="230" width="120" height="60" as="geometry" />
        </mxCell>
        <mxCell id="Le8qK9793g7wIc5CrF22-12" value="" style="endArrow=classic;html=1;exitX=0.5;exitY=1;exitDx=0;exitDy=0;" edge="1" parent="1">
          <mxGeometry width="50" height="50" relative="1" as="geometry">
            <mxPoint x="240" y="289.9999999999999" as="sourcePoint" />
            <mxPoint x="240" y="340" as="targetPoint" />
          </mxGeometry>
        </mxCell>
        <mxCell id="Le8qK9793g7wIc5CrF22-13" value="ShadowBuffer" style="rounded=1;whiteSpace=wrap;html=1;strokeColor=none;fillColor=none;" vertex="1" parent="1">
          <mxGeometry x="255" y="300" width="105" height="30" as="geometry" />
        </mxCell>
        <mxCell id="Le8qK9793g7wIc5CrF22-14" value="CSM+PCF" style="rounded=1;whiteSpace=wrap;html=1;strokeColor=#d6b656;fillColor=#fff2cc;" vertex="1" parent="1">
          <mxGeometry x="309" y="245" width="105" height="30" as="geometry" />
        </mxCell>
        <mxCell id="Le8qK9793g7wIc5CrF22-16" value="SSAOPass" style="rounded=1;whiteSpace=wrap;html=1;" vertex="1" parent="1">
          <mxGeometry x="180" y="330" width="120" height="60" as="geometry" />
        </mxCell>
        <mxCell id="Le8qK9793g7wIc5CrF22-17" value="TiledLightShading" style="rounded=1;whiteSpace=wrap;html=1;" vertex="1" parent="1">
          <mxGeometry x="180" y="430" width="120" height="60" as="geometry" />
        </mxCell>
        <mxCell id="Le8qK9793g7wIc5CrF22-18" value="" style="endArrow=classic;html=1;exitX=0.5;exitY=1;exitDx=0;exitDy=0;" edge="1" parent="1" source="Le8qK9793g7wIc5CrF22-16" target="Le8qK9793g7wIc5CrF22-17">
          <mxGeometry width="50" height="50" relative="1" as="geometry">
            <mxPoint x="250" y="299.9999999999999" as="sourcePoint" />
            <mxPoint x="250" y="350.0000000000001" as="targetPoint" />
          </mxGeometry>
        </mxCell>
        <mxCell id="Le8qK9793g7wIc5CrF22-19" value="AOBuffer" style="rounded=1;whiteSpace=wrap;html=1;strokeColor=none;fillColor=none;" vertex="1" parent="1">
          <mxGeometry x="250" y="400" width="105" height="30" as="geometry" />
        </mxCell>
        <mxCell id="Le8qK9793g7wIc5CrF22-20" value="SSAO" style="rounded=1;whiteSpace=wrap;html=1;strokeColor=#d6b656;fillColor=#fff2cc;" vertex="1" parent="1">
          <mxGeometry x="309" y="345" width="105" height="30" as="geometry" />
        </mxCell>
        <mxCell id="Le8qK9793g7wIc5CrF22-23" value="" style="endArrow=classic;html=1;exitX=0.5;exitY=1;exitDx=0;exitDy=0;" edge="1" parent="1" source="Le8qK9793g7wIc5CrF22-17">
          <mxGeometry width="50" height="50" relative="1" as="geometry">
            <mxPoint x="250" y="400.0000000000001" as="sourcePoint" />
            <mxPoint x="240" y="540" as="targetPoint" />
          </mxGeometry>
        </mxCell>
        <mxCell id="Le8qK9793g7wIc5CrF22-24" value="PointLightBuffer" style="rounded=1;whiteSpace=wrap;html=1;strokeColor=none;fillColor=none;" vertex="1" parent="1">
          <mxGeometry x="242.5" y="500" width="105" height="30" as="geometry" />
        </mxCell>
        <mxCell id="Le8qK9793g7wIc5CrF22-25" value="DirLightAndIBlPass" style="rounded=1;whiteSpace=wrap;html=1;" vertex="1" parent="1">
          <mxGeometry x="180" y="540" width="120" height="60" as="geometry" />
        </mxCell>
        <mxCell id="Le8qK9793g7wIc5CrF22-26" value="OpacityBuffer" style="rounded=1;whiteSpace=wrap;html=1;strokeColor=none;fillColor=none;" vertex="1" parent="1">
          <mxGeometry x="285" y="570" width="105" height="30" as="geometry" />
        </mxCell>
        <mxCell id="Le8qK9793g7wIc5CrF22-27" value="" style="endArrow=classic;html=1;exitX=1;exitY=0.5;exitDx=0;exitDy=0;" edge="1" parent="1" source="Le8qK9793g7wIc5CrF22-25">
          <mxGeometry width="50" height="50" relative="1" as="geometry">
            <mxPoint x="242.5" y="600" as="sourcePoint" />
            <mxPoint x="390" y="570" as="targetPoint" />
          </mxGeometry>
        </mxCell>
        <mxCell id="Le8qK9793g7wIc5CrF22-28" value="ACES ToneMap" style="rounded=1;whiteSpace=wrap;html=1;" vertex="1" parent="1">
          <mxGeometry x="610" y="450" width="120" height="60" as="geometry" />
        </mxCell>
        <mxCell id="Le8qK9793g7wIc5CrF22-45" value="" style="edgeStyle=orthogonalEdgeStyle;rounded=0;orthogonalLoop=1;jettySize=auto;html=1;" edge="1" parent="1" source="Le8qK9793g7wIc5CrF22-29" target="Le8qK9793g7wIc5CrF22-33">
          <mxGeometry relative="1" as="geometry" />
        </mxCell>
        <mxCell id="Le8qK9793g7wIc5CrF22-29" value="GammaCorrect" style="rounded=1;whiteSpace=wrap;html=1;" vertex="1" parent="1">
          <mxGeometry x="610" y="360" width="120" height="50" as="geometry" />
        </mxCell>
        <mxCell id="Le8qK9793g7wIc5CrF22-33" value="FXAA" style="rounded=1;whiteSpace=wrap;html=1;" vertex="1" parent="1">
          <mxGeometry x="610" y="275" width="120" height="60" as="geometry" />
        </mxCell>
        <mxCell id="Le8qK9793g7wIc5CrF22-34" value="" style="endArrow=classic;html=1;exitX=0.5;exitY=0;exitDx=0;exitDy=0;entryX=0.5;entryY=1;entryDx=0;entryDy=0;" edge="1" parent="1" source="Le8qK9793g7wIc5CrF22-29" target="Le8qK9793g7wIc5CrF22-33">
          <mxGeometry width="50" height="50" relative="1" as="geometry">
            <mxPoint x="520" y="580" as="sourcePoint" />
            <mxPoint x="580" y="580" as="targetPoint" />
          </mxGeometry>
        </mxCell>
        <mxCell id="Le8qK9793g7wIc5CrF22-38" value="&lt;font style=&quot;font-size: 21px&quot;&gt;预渲染&lt;/font&gt;" style="rounded=1;whiteSpace=wrap;html=1;fillColor=none;strokeColor=none;" vertex="1" parent="1">
          <mxGeometry x="377.5" y="-170" width="102.5" height="40" as="geometry" />
        </mxCell>
        <mxCell id="Le8qK9793g7wIc5CrF22-40" value="&lt;font style=&quot;font-size: 20px&quot;&gt;实时渲染管线&lt;/font&gt;" style="rounded=1;whiteSpace=wrap;html=1;fillColor=none;strokeColor=none;" vertex="1" parent="1">
          <mxGeometry x="377.5" y="-20" width="172.5" height="40" as="geometry" />
        </mxCell>
        <mxCell id="Le8qK9793g7wIc5CrF22-41" value="RenderGeneralTransparent" style="rounded=1;whiteSpace=wrap;html=1;" vertex="1" parent="1">
          <mxGeometry x="390" y="540" width="190" height="60" as="geometry" />
        </mxCell>
        <mxCell id="Le8qK9793g7wIc5CrF22-42" value="RenderSSR" style="rounded=1;whiteSpace=wrap;html=1;" vertex="1" parent="1">
          <mxGeometry x="620" y="540" width="100" height="60" as="geometry" />
        </mxCell>
        <mxCell id="Le8qK9793g7wIc5CrF22-48" value="" style="endArrow=classic;html=1;exitX=0.5;exitY=0;exitDx=0;exitDy=0;entryX=0.5;entryY=1;entryDx=0;entryDy=0;" edge="1" parent="1" source="Le8qK9793g7wIc5CrF22-42" target="Le8qK9793g7wIc5CrF22-28">
          <mxGeometry width="50" height="50" relative="1" as="geometry">
            <mxPoint x="670" y="370" as="sourcePoint" />
            <mxPoint x="670" y="340" as="targetPoint" />
          </mxGeometry>
        </mxCell>
        <mxCell id="Le8qK9793g7wIc5CrF22-49" value="" style="endArrow=classic;html=1;exitX=1;exitY=0.5;exitDx=0;exitDy=0;entryX=0;entryY=0.5;entryDx=0;entryDy=0;" edge="1" parent="1" source="Le8qK9793g7wIc5CrF22-41" target="Le8qK9793g7wIc5CrF22-42">
          <mxGeometry width="50" height="50" relative="1" as="geometry">
            <mxPoint x="670" y="370" as="sourcePoint" />
            <mxPoint x="670" y="340" as="targetPoint" />
          </mxGeometry>
        </mxCell>
        <mxCell id="Le8qK9793g7wIc5CrF22-50" value="" style="endArrow=classic;html=1;entryX=0.5;entryY=1;entryDx=0;entryDy=0;" edge="1" parent="1" source="Le8qK9793g7wIc5CrF22-28" target="Le8qK9793g7wIc5CrF22-29">
          <mxGeometry width="50" height="50" relative="1" as="geometry">
            <mxPoint x="670" y="370" as="sourcePoint" />
            <mxPoint x="670" y="340" as="targetPoint" />
          </mxGeometry>
        </mxCell>
      </root>
    </mxGraphModel>
  </diagram>
</mxfile>
